0
SECTION
2
HEADER
9
$INSUNITS
70
4
0
ENDSEC
0
SECTION
2
TABLES
0
TABLE
2
LTYPE
0
LTYPE
72
65
70
64
2
CONTINUOUS
3
______
73
0
40
0
0
ENDTAB
0
TABLE
2
LAYER
0
ENDTAB
0
ENDSEC
0
SECTION
2
ENTITIES
0
LINE
8
0
10
-10
20
-10
11
29
21
-10
0
LINE
8
0
10
-10.5
20
-9.5
11
-10.5
21
85.7
0
LINE
8
0
10
-10
20
86.2
11
27
21
86.2
0
LINE
8
0
10
29.5
20
-9.5
11
29.5
21
-2.697
0
LINE
8
0
10
48.5
20
-2.1895
11
48.5
21
-2.197
0
LINE
8
0
10
30
20
-2.197
11
48.5
21
-2.197
0
LINE
8
0
10
46
20
98.773
11
28
21
98.773
0
LINE
8
0
10
27.5
20
86.7
11
27.5
21
98.273
0
LINE
8
0
10
67.5
20
99.273
11
67.5
21
103.0355
0
LINE
8
0
10
67
20
103.5355
11
47
21
103.5355
0
LINE
8
0
10
46.5
20
103.0355
11
46.5
21
99.273
0
LINE
8
0
10
86.5
20
96.4155
11
86.5
21
98.273
0
LINE
8
0
10
86
20
98.773
11
68
21
98.773
0
LINE
8
0
10
87
20
95.9155
11
129.647
21
95.9155
0
LINE
8
0
10
48.5
20
-2.1895
11
66.4896984
21
-2.1895
0
LINE
8
0
10
66.5765225
20
-2.1970961
11
85.1690993
21
-5.475469
0
LINE
8
0
10
85.2532852
20
-5.4980266
11
102.9941158
21
-11.9551608
0
LINE
8
0
10
103.0731057
20
-11.9919944
11
119.9083781
21
-21.7118435
0
LINE
8
0
10
120.5913908
20
-21.5288308
11
130.0913908
21
-5.0743482
0
ARC
8
0
10
29
20
-9.5
40
0.5
50
270
51
0
0
ARC
8
0
10
30
20
-2.697
40
0.5
50
90
51
180
0
ARC
8
0
10
66.4896984
20
-2.6895
40
0.5
50
79.9999992
51
90
0
ARC
8
0
10
85.0822752
20
-5.9678729
40
0.5
50
70.0000019
51
79.9999992
0
ARC
8
0
10
102.8231057
20
-12.4250071
40
0.5
50
59.9999999
51
70.0000019
0
ARC
8
0
10
120.1583781
20
-21.2788308
40
0.5
50
239.9999999
51
329.9999999
0
ARC
8
0
10
129.6583781
20
-4.8243482
40
0.5
50
329.9999999
51
372.2465718
0
ARC
8
0
10
87
20
96.4155
40
0.5
50
180
51
270
0
ARC
8
0
10
86
20
98.273
40
0.5
50
0
51
90
0
ARC
8
0
10
68
20
99.273
40
0.5
50
180
51
270
0
ARC
8
0
10
67
20
103.0355
40
0.5
50
0
51
90
0
ARC
8
0
10
47
20
103.0355
40
0.5
50
90
51
180
0
ARC
8
0
10
46
20
99.273
40
0.5
50
270
51
0
0
ARC
8
0
10
28
20
98.273
40
0.5
50
90
51
180
0
ARC
8
0
10
27
20
86.7
40
0.5
50
270
51
0
0
ARC
8
0
10
-10
20
85.7
40
0.5
50
90
51
180
0
ARC
8
0
10
-10
20
-9.5
40
0.5
50
180
51
270
0
LINE
8
0
10
130.147
20
95.4155
11
130.147
21
-4.7182886
0
ARC
8
0
10
129.647
20
95.4155
40
0.5
50
0
51
90
0
CIRCLE
8
0
10
9.475
20
9.525
40
1.1
0
CIRCLE
8
0
10
9.475
20
66.675
40
1.1
0
CIRCLE
8
0
10
47.475
20
45.9105
40
1.1
0
CIRCLE
8
0
10
47.475
20
84.0105
40
1.1
0
CIRCLE
8
0
10
85.475
20
38.2905
40
1.1
0
CIRCLE
8
0
10
85.475
20
76.3905
40
1.1
0
CIRCLE
8
0
10
117
20
19.2405
40
1.1
0
ENDSEC
0
EOF