0
SECTION
2
HEADER
9
$INSUNITS
70
4
0
ENDSEC
0
SECTION
2
TABLES
0
TABLE
2
LTYPE
0
LTYPE
72
65
70
64
2
CONTINUOUS
3
______
73
0
40
0
0
ENDTAB
0
TABLE
2
LAYER
0
ENDTAB
0
ENDSEC
0
SECTION
2
ENTITIES
0
LINE
8
0
10
279.6962482
20
-10
11
318.6962482
21
-10
0
LINE
8
0
10
319.1962482
20
-9.5
11
319.1962482
21
85.7
0
LINE
8
0
10
281.6962482
20
86.2
11
318.6962482
21
86.2
0
LINE
8
0
10
279.1962482
20
-2.697
11
279.1962482
21
-9.5
0
LINE
8
0
10
260.1962482
20
-2.197
11
278.6962482
21
-2.197
0
LINE
8
0
10
260.1962482
20
-2.197
11
260.1962482
21
-2.1895
0
LINE
8
0
10
281.1962482
20
86.7
11
281.1962482
21
98.273
0
LINE
8
0
10
280.6962482
20
98.773
11
262.6962482
21
98.773
0
LINE
8
0
10
262.1962482
20
99.273
11
262.1962482
21
103.0355
0
LINE
8
0
10
261.6962482
20
103.5355
11
241.6962482
21
103.5355
0
LINE
8
0
10
241.1962482
20
103.0355
11
241.1962482
21
99.273
0
LINE
8
0
10
240.6962482
20
98.773
11
222.6962482
21
98.773
0
LINE
8
0
10
222.1962482
20
98.273
11
222.1962482
21
96.4155
0
LINE
8
0
10
179.0492482
20
95.9155
11
221.6962482
21
95.9155
0
LINE
8
0
10
242.2065498
20
-2.1895
11
260.1962482
21
-2.1895
0
LINE
8
0
10
223.5271489
20
-5.475469
11
242.1197257
21
-2.1970961
0
LINE
8
0
10
205.7021324
20
-11.9551608
11
223.442963
21
-5.4980266
0
LINE
8
0
10
188.7878701
20
-21.7118435
11
205.6231425
21
-11.9919944
0
LINE
8
0
10
178.6048574
20
-5.0743482
11
188.1048574
21
-21.5288308
0
ARC
8
0
10
318.6962482
20
-9.5
40
0.5
50
270
51
0
0
ARC
8
0
10
318.6962482
20
85.7
40
0.5
50
0
51
90
0
ARC
8
0
10
281.6962482
20
86.7
40
0.5
50
180
51
270
0
ARC
8
0
10
280.6962482
20
98.273
40
0.5
50
0
51
90
0
ARC
8
0
10
262.6962482
20
99.273
40
0.5
50
180
51
270
0
ARC
8
0
10
261.6962482
20
103.0355
40
0.5
50
0
51
90
0
ARC
8
0
10
241.6962482
20
103.0355
40
0.5
50
90
51
180
0
ARC
8
0
10
240.6962482
20
99.273
40
0.5
50
270
51
0
0
ARC
8
0
10
222.6962482
20
98.273
40
0.5
50
90
51
180
0
ARC
8
0
10
221.6962482
20
96.4155
40
0.5
50
270
51
0
0
ARC
8
0
10
179.0378701
20
-4.8243482
40
0.5
50
167.7534282
51
210.0000001
0
ARC
8
0
10
188.5378701
20
-21.2788308
40
0.5
50
210.0000001
51
300.0000001
0
ARC
8
0
10
205.8731425
20
-12.4250071
40
0.5
50
109.9999981
51
120.0000001
0
ARC
8
0
10
223.613973
20
-5.9678729
40
0.5
50
100.0000008
51
109.9999981
0
ARC
8
0
10
242.2065498
20
-2.6895
40
0.5
50
90
51
100.0000008
0
ARC
8
0
10
278.6962482
20
-2.697
40
0.5
50
0
51
90
0
ARC
8
0
10
279.6962482
20
-9.5
40
0.5
50
180
51
270
0
LINE
8
0
10
178.5492482
20
95.4155
11
178.5492482
21
-4.7182886
0
ARC
8
0
10
179.0492482
20
95.4155
40
0.5
50
90
51
180
0
CIRCLE
8
0
10
299.2212482
20
9.525
40
1.1
0
CIRCLE
8
0
10
299.2212482
20
66.675
40
1.1
0
CIRCLE
8
0
10
261.2212482
20
45.9105
40
1.1
0
CIRCLE
8
0
10
261.2212482
20
84.0105
40
1.1
0
CIRCLE
8
0
10
223.2212482
20
38.2905
40
1.1
0
CIRCLE
8
0
10
223.2212482
20
76.3905
40
1.1
0
CIRCLE
8
0
10
191.6962482
20
19.2405
40
1.1
0
ENDSEC
0
EOF