0
SECTION
2
HEADER
9
$INSUNITS
70
4
0
ENDSEC
0
SECTION
2
TABLES
0
TABLE
2
LTYPE
0
LTYPE
72
65
70
64
2
CONTINUOUS
3
______
73
0
40
0
0
ENDTAB
0
TABLE
2
LAYER
0
ENDTAB
0
ENDSEC
0
SECTION
2
ENTITIES
0
LINE
8
0
10
279.6962482
20
-10
11
318.6962482
21
-10
0
LINE
8
0
10
319.1962482
20
-9.5
11
319.1962482
21
85.7
0
LINE
8
0
10
281.6962482
20
86.2
11
318.6962482
21
86.2
0
LINE
8
0
10
279.1962482
20
-2.697
11
279.1962482
21
-9.5
0
LINE
8
0
10
260.1962482
20
-2.197
11
278.6962482
21
-2.197
0
LINE
8
0
10
260.1962482
20
-2.197
11
260.1962482
21
-2.1895
0
LINE
8
0
10
281.1962482
20
86.7
11
281.1962482
21
98.273
0
LINE
8
0
10
280.6962482
20
98.773
11
262.6962482
21
98.773
0
LINE
8
0
10
262.1962482
20
99.273
11
262.1962482
21
103.0355
0
LINE
8
0
10
261.6962482
20
103.5355
11
241.6962482
21
103.5355
0
LINE
8
0
10
241.1962482
20
103.0355
11
241.1962482
21
99.273
0
LINE
8
0
10
240.6962482
20
98.773
11
222.6962482
21
98.773
0
LINE
8
0
10
222.1962482
20
98.273
11
222.1962482
21
96.4155
0
LINE
8
0
10
203.1962482
20
8.7664311
11
203.1962482
21
37.3155
0
LINE
8
0
10
203.1962482
20
58.3155
11
203.1962482
21
95.4155
0
LINE
8
0
10
221.6962482
20
95.9155
11
203.6962482
21
95.9155
0
LINE
8
0
10
242.2065498
20
-2.1895
11
260.1962482
21
-2.1895
0
LINE
8
0
10
223.5271489
20
-5.475469
11
242.1197257
21
-2.1970961
0
LINE
8
0
10
205.7021324
20
-11.9551608
11
223.442963
21
-5.4980266
0
LINE
8
0
10
197.1764832
20
6.2253121
11
202.8672583
21
8.2965848
0
LINE
8
0
10
197.1762678
20
6.2252337
11
197.1763746
21
6.2252726
0
LINE
8
0
10
188.7878701
20
-21.7118435
11
205.6231425
21
-11.9919944
0
LINE
8
0
10
178.7878701
20
-4.3913355
11
197.1762747
21
6.2252149
0
LINE
8
0
10
178.6048574
20
-5.0743482
11
188.1048574
21
-21.5288308
0
LINE
8
0
10
197.1763746
20
6.2252726
11
197.1764732
21
6.2253295
0
LINE
8
0
10
181.6962482
20
37.8155
11
202.6962482
21
37.8155
0
LINE
8
0
10
181.6962482
20
57.8155
11
202.6962482
21
57.8155
0
LINE
8
0
10
181.1962482
20
57.3155
11
181.1962482
21
38.3155
0
ARC
8
0
10
318.6962482
20
-9.5
40
0.5
50
270
51
0
0
ARC
8
0
10
318.6962482
20
85.7
40
0.5
50
0
51
90
0
ARC
8
0
10
281.6962482
20
86.7
40
0.5
50
180
51
270
0
ARC
8
0
10
280.6962482
20
98.273
40
0.5
50
0
51
90
0
ARC
8
0
10
262.6962482
20
99.273
40
0.5
50
180
51
270
0
ARC
8
0
10
261.6962482
20
103.0355
40
0.5
50
0
51
90
0
ARC
8
0
10
241.6962482
20
103.0355
40
0.5
50
90
51
180
0
ARC
8
0
10
240.6962482
20
99.273
40
0.5
50
270
51
0
0
ARC
8
0
10
222.6962482
20
98.273
40
0.5
50
90
51
180
0
ARC
8
0
10
221.6962482
20
96.4155
40
0.5
50
270
51
0
0
ARC
8
0
10
203.6962482
20
95.4155
40
0.5
50
90
51
180
0
ARC
8
0
10
202.6962482
20
58.3155
40
0.5
50
270
51
0
0
ARC
8
0
10
181.6962482
20
57.3155
40
0.5
50
90
51
180
0
ARC
8
0
10
181.6962482
20
38.3155
40
0.5
50
180
51
270
0
ARC
8
0
10
202.6962482
20
37.3155
40
0.5
50
0
51
90
0
ARC
8
0
10
202.6962482
20
8.7664311
40
0.5
50
289.9999981
51
0
0
ARC
8
0
10
179.0378701
20
-4.8243482
40
0.5
50
120.0000001
51
210.0000001
0
ARC
8
0
10
188.5378701
20
-21.2788308
40
0.5
50
210.0000001
51
300.0000001
0
ARC
8
0
10
205.8731425
20
-12.4250071
40
0.5
50
109.9999981
51
120.0000001
0
ARC
8
0
10
223.613973
20
-5.9678729
40
0.5
50
100.0000008
51
109.9999981
0
ARC
8
0
10
242.2065498
20
-2.6895
40
0.5
50
90
51
100.0000008
0
ARC
8
0
10
278.6962482
20
-2.697
40
0.5
50
0
51
90
0
ARC
8
0
10
279.6962482
20
-9.5
40
0.5
50
180
51
270
0
LINE
8
0
10
299.6962482
20
-8.5
11
317.6962482
21
-8.5
0
LINE
8
0
10
317.6962482
20
-8.5
11
317.6962482
21
8.5
0
LINE
8
0
10
317.6962482
20
8.5
11
299.6962482
21
8.5
0
LINE
8
0
10
299.6962482
20
8.5
11
299.6962482
21
-8.5
0
LINE
8
0
10
299.6962482
20
10.55
11
317.6962482
21
10.55
0
LINE
8
0
10
317.6962482
20
10.55
11
317.6962482
21
27.55
0
LINE
8
0
10
317.6962482
20
27.55
11
299.6962482
21
27.55
0
LINE
8
0
10
299.6962482
20
27.55
11
299.6962482
21
10.55
0
LINE
8
0
10
299.6962482
20
29.6
11
317.6962482
21
29.6
0
LINE
8
0
10
317.6962482
20
29.6
11
317.6962482
21
46.6
0
LINE
8
0
10
317.6962482
20
46.6
11
299.6962482
21
46.6
0
LINE
8
0
10
299.6962482
20
46.6
11
299.6962482
21
29.6
0
LINE
8
0
10
299.6962482
20
48.65
11
317.6962482
21
48.65
0
LINE
8
0
10
317.6962482
20
48.65
11
317.6962482
21
65.65
0
LINE
8
0
10
317.6962482
20
65.65
11
299.6962482
21
65.65
0
LINE
8
0
10
299.6962482
20
65.65
11
299.6962482
21
48.65
0
LINE
8
0
10
299.6962482
20
67.7
11
317.6962482
21
67.7
0
LINE
8
0
10
317.6962482
20
67.7
11
317.6962482
21
84.7
0
LINE
8
0
10
317.6962482
20
84.7
11
299.6962482
21
84.7
0
LINE
8
0
10
299.6962482
20
84.7
11
299.6962482
21
67.7
0
LINE
8
0
10
280.6962482
20
-8.5
11
298.6962482
21
-8.5
0
LINE
8
0
10
298.6962482
20
-8.5
11
298.6962482
21
8.5
0
LINE
8
0
10
298.6962482
20
8.5
11
280.6962482
21
8.5
0
LINE
8
0
10
280.6962482
20
8.5
11
280.6962482
21
-8.5
0
LINE
8
0
10
280.6962482
20
10.55
11
298.6962482
21
10.55
0
LINE
8
0
10
298.6962482
20
10.55
11
298.6962482
21
27.55
0
LINE
8
0
10
298.6962482
20
27.55
11
280.6962482
21
27.55
0
LINE
8
0
10
280.6962482
20
27.55
11
280.6962482
21
10.55
0
LINE
8
0
10
280.6962482
20
29.6
11
298.6962482
21
29.6
0
LINE
8
0
10
298.6962482
20
29.6
11
298.6962482
21
46.6
0
LINE
8
0
10
298.6962482
20
46.6
11
280.6962482
21
46.6
0
LINE
8
0
10
280.6962482
20
46.6
11
280.6962482
21
29.6
0
LINE
8
0
10
280.6962482
20
48.65
11
298.6962482
21
48.65
0
LINE
8
0
10
298.6962482
20
48.65
11
298.6962482
21
65.65
0
LINE
8
0
10
298.6962482
20
65.65
11
280.6962482
21
65.65
0
LINE
8
0
10
280.6962482
20
65.65
11
280.6962482
21
48.65
0
LINE
8
0
10
280.6962482
20
67.7
11
298.6962482
21
67.7
0
LINE
8
0
10
298.6962482
20
67.7
11
298.6962482
21
84.7
0
LINE
8
0
10
298.6962482
20
84.7
11
280.6962482
21
84.7
0
LINE
8
0
10
280.6962482
20
84.7
11
280.6962482
21
67.7
0
LINE
8
0
10
261.6962482
20
23.123
11
279.6962482
21
23.123
0
LINE
8
0
10
279.6962482
20
23.123
11
279.6962482
21
40.123
0
LINE
8
0
10
279.6962482
20
40.123
11
261.6962482
21
40.123
0
LINE
8
0
10
261.6962482
20
40.123
11
261.6962482
21
23.123
0
LINE
8
0
10
261.6962482
20
42.173
11
279.6962482
21
42.173
0
LINE
8
0
10
279.6962482
20
42.173
11
279.6962482
21
59.173
0
LINE
8
0
10
279.6962482
20
59.173
11
261.6962482
21
59.173
0
LINE
8
0
10
261.6962482
20
59.173
11
261.6962482
21
42.173
0
LINE
8
0
10
261.6962482
20
61.223
11
279.6962482
21
61.223
0
LINE
8
0
10
279.6962482
20
61.223
11
279.6962482
21
78.223
0
LINE
8
0
10
279.6962482
20
78.223
11
261.6962482
21
78.223
0
LINE
8
0
10
261.6962482
20
78.223
11
261.6962482
21
61.223
0
LINE
8
0
10
261.6962482
20
80.273
11
279.6962482
21
80.273
0
LINE
8
0
10
279.6962482
20
80.273
11
279.6962482
21
97.273
0
LINE
8
0
10
279.6962482
20
97.273
11
261.6962482
21
97.273
0
LINE
8
0
10
261.6962482
20
97.273
11
261.6962482
21
80.273
0
LINE
8
0
10
242.6962482
20
27.8855
11
260.6962482
21
27.8855
0
LINE
8
0
10
260.6962482
20
27.8855
11
260.6962482
21
44.8855
0
LINE
8
0
10
260.6962482
20
44.8855
11
242.6962482
21
44.8855
0
LINE
8
0
10
242.6962482
20
44.8855
11
242.6962482
21
27.8855
0
LINE
8
0
10
242.6962482
20
46.9355
11
260.6962482
21
46.9355
0
LINE
8
0
10
260.6962482
20
46.9355
11
260.6962482
21
63.9355
0
LINE
8
0
10
260.6962482
20
63.9355
11
242.6962482
21
63.9355
0
LINE
8
0
10
242.6962482
20
63.9355
11
242.6962482
21
46.9355
0
LINE
8
0
10
242.6962482
20
65.9855
11
260.6962482
21
65.9855
0
LINE
8
0
10
260.6962482
20
65.9855
11
260.6962482
21
82.9855
0
LINE
8
0
10
260.6962482
20
82.9855
11
242.6962482
21
82.9855
0
LINE
8
0
10
242.6962482
20
82.9855
11
242.6962482
21
65.9855
0
LINE
8
0
10
242.6962482
20
85.0355
11
260.6962482
21
85.0355
0
LINE
8
0
10
260.6962482
20
85.0355
11
260.6962482
21
102.0355
0
LINE
8
0
10
260.6962482
20
102.0355
11
242.6962482
21
102.0355
0
LINE
8
0
10
242.6962482
20
102.0355
11
242.6962482
21
85.0355
0
LINE
8
0
10
223.6962482
20
23.123
11
241.6962482
21
23.123
0
LINE
8
0
10
241.6962482
20
23.123
11
241.6962482
21
40.123
0
LINE
8
0
10
241.6962482
20
40.123
11
223.6962482
21
40.123
0
LINE
8
0
10
223.6962482
20
40.123
11
223.6962482
21
23.123
0
LINE
8
0
10
223.6962482
20
42.173
11
241.6962482
21
42.173
0
LINE
8
0
10
241.6962482
20
42.173
11
241.6962482
21
59.173
0
LINE
8
0
10
241.6962482
20
59.173
11
223.6962482
21
59.173
0
LINE
8
0
10
223.6962482
20
59.173
11
223.6962482
21
42.173
0
LINE
8
0
10
223.6962482
20
61.223
11
241.6962482
21
61.223
0
LINE
8
0
10
241.6962482
20
61.223
11
241.6962482
21
78.223
0
LINE
8
0
10
241.6962482
20
78.223
11
223.6962482
21
78.223
0
LINE
8
0
10
223.6962482
20
78.223
11
223.6962482
21
61.223
0
LINE
8
0
10
223.6962482
20
80.273
11
241.6962482
21
80.273
0
LINE
8
0
10
241.6962482
20
80.273
11
241.6962482
21
97.273
0
LINE
8
0
10
241.6962482
20
97.273
11
223.6962482
21
97.273
0
LINE
8
0
10
223.6962482
20
97.273
11
223.6962482
21
80.273
0
LINE
8
0
10
204.6962482
20
20.2655
11
222.6962482
21
20.2655
0
LINE
8
0
10
222.6962482
20
20.2655
11
222.6962482
21
37.2655
0
LINE
8
0
10
222.6962482
20
37.2655
11
204.6962482
21
37.2655
0
LINE
8
0
10
204.6962482
20
37.2655
11
204.6962482
21
20.2655
0
LINE
8
0
10
204.6962482
20
39.3155
11
222.6962482
21
39.3155
0
LINE
8
0
10
222.6962482
20
39.3155
11
222.6962482
21
56.3155
0
LINE
8
0
10
222.6962482
20
56.3155
11
204.6962482
21
56.3155
0
LINE
8
0
10
204.6962482
20
56.3155
11
204.6962482
21
39.3155
0
LINE
8
0
10
204.6962482
20
58.3655
11
222.6962482
21
58.3655
0
LINE
8
0
10
222.6962482
20
58.3655
11
222.6962482
21
75.3655
0
LINE
8
0
10
222.6962482
20
75.3655
11
204.6962482
21
75.3655
0
LINE
8
0
10
204.6962482
20
75.3655
11
204.6962482
21
58.3655
0
LINE
8
0
10
204.6962482
20
77.4155
11
222.6962482
21
77.4155
0
LINE
8
0
10
222.6962482
20
77.4155
11
222.6962482
21
94.4155
0
LINE
8
0
10
222.6962482
20
94.4155
11
204.6962482
21
94.4155
0
LINE
8
0
10
204.6962482
20
94.4155
11
204.6962482
21
77.4155
0
LINE
8
0
10
242.6462482
20
-0.6895
11
260.6462482
21
-0.6895
0
LINE
8
0
10
260.6462482
20
-0.6895
11
260.6462482
21
16.3105
0
LINE
8
0
10
260.6462482
20
16.3105
11
242.6462482
21
16.3105
0
LINE
8
0
10
242.6462482
20
16.3105
11
242.6462482
21
-0.6895
0
LINE
8
0
10
223.6996952
20
-3.9219045
11
241.4262348
21
-0.7962373
0
LINE
8
0
10
241.4262348
20
-0.7962373
11
238.4742158
21
15.9454945
0
LINE
8
0
10
238.4742158
20
15.9454945
11
220.7476762
21
12.8198273
0
LINE
8
0
10
220.7476762
20
12.8198273
11
223.6996952
21
-3.9219045
0
LINE
8
0
10
205.6022841
20
-10.395236
11
222.5167513
21
-4.2388734
0
LINE
8
0
10
222.5167513
20
-4.2388734
11
216.7024089
21
11.7359012
0
LINE
8
0
10
216.7024089
20
11.7359012
11
199.7879417
21
5.5795386
0
LINE
8
0
10
199.7879417
20
5.5795386
11
205.6022841
21
-10.395236
0
LINE
8
0
10
188.9038955
20
-19.9128054
11
204.4923527
21
-10.9128054
0
LINE
8
0
10
204.4923527
20
-10.9128054
11
195.9923527
21
3.8096264
0
LINE
8
0
10
195.9923527
20
3.8096264
11
180.4038955
21
-5.1903736
0
LINE
8
0
10
180.4038955
20
-5.1903736
11
188.9038955
21
-19.9128054
0
LINE
8
0
10
182.6962482
20
39.3155
11
200.6962482
21
39.3155
0
LINE
8
0
10
200.6962482
20
39.3155
11
200.6962482
21
56.3155
0
LINE
8
0
10
200.6962482
20
56.3155
11
182.6962482
21
56.3155
0
LINE
8
0
10
182.6962482
20
56.3155
11
182.6962482
21
39.3155
0
ENDSEC
0
EOF