0
SECTION
2
HEADER
9
$INSUNITS
70
4
0
ENDSEC
0
SECTION
2
TABLES
0
TABLE
2
LTYPE
0
LTYPE
72
65
70
64
2
CONTINUOUS
3
______
73
0
40
0
0
ENDTAB
0
TABLE
2
LAYER
0
ENDTAB
0
ENDSEC
0
SECTION
2
ENTITIES
0
LINE
8
0
10
279.6962482
20
-10
11
318.6962482
21
-10
0
LINE
8
0
10
319.1962482
20
-9.5
11
319.1962482
21
85.7
0
LINE
8
0
10
281.6962482
20
86.2
11
318.6962482
21
86.2
0
LINE
8
0
10
279.1962482
20
-2.697
11
279.1962482
21
-9.5
0
LINE
8
0
10
260.1962482
20
-2.197
11
278.6962482
21
-2.197
0
LINE
8
0
10
260.1962482
20
-2.197
11
260.1962482
21
-2.1895
0
LINE
8
0
10
281.1962482
20
86.7
11
281.1962482
21
98.273
0
LINE
8
0
10
280.6962482
20
98.773
11
262.6962482
21
98.773
0
LINE
8
0
10
262.1962482
20
99.273
11
262.1962482
21
103.0355
0
LINE
8
0
10
261.6962482
20
103.5355
11
241.6962482
21
103.5355
0
LINE
8
0
10
241.1962482
20
103.0355
11
241.1962482
21
99.273
0
LINE
8
0
10
240.6962482
20
98.773
11
222.6962482
21
98.773
0
LINE
8
0
10
222.1962482
20
98.273
11
222.1962482
21
96.4155
0
LINE
8
0
10
203.1962482
20
8.7664311
11
203.1962482
21
37.3155
0
LINE
8
0
10
203.1962482
20
58.3155
11
203.1962482
21
95.4155
0
LINE
8
0
10
221.6962482
20
95.9155
11
203.6962482
21
95.9155
0
LINE
8
0
10
242.2065498
20
-2.1895
11
260.1962482
21
-2.1895
0
LINE
8
0
10
223.5271489
20
-5.475469
11
242.1197257
21
-2.1970961
0
LINE
8
0
10
205.7021324
20
-11.9551608
11
223.442963
21
-5.4980266
0
LINE
8
0
10
197.1764832
20
6.2253121
11
202.8672583
21
8.2965848
0
LINE
8
0
10
197.1762678
20
6.2252337
11
197.1763746
21
6.2252726
0
LINE
8
0
10
188.7878701
20
-21.7118435
11
205.6231425
21
-11.9919944
0
LINE
8
0
10
178.7878701
20
-4.3913355
11
197.1762747
21
6.2252149
0
LINE
8
0
10
178.6048574
20
-5.0743482
11
188.1048574
21
-21.5288308
0
LINE
8
0
10
197.1763746
20
6.2252726
11
197.1764732
21
6.2253295
0
LINE
8
0
10
181.6962482
20
37.8155
11
202.6962482
21
37.8155
0
LINE
8
0
10
181.6962482
20
57.8155
11
202.6962482
21
57.8155
0
LINE
8
0
10
181.1962482
20
57.3155
11
181.1962482
21
38.3155
0
ARC
8
0
10
318.6962482
20
-9.5
40
0.5
50
270
51
0
0
ARC
8
0
10
318.6962482
20
85.7
40
0.5
50
0
51
90
0
ARC
8
0
10
281.6962482
20
86.7
40
0.5
50
180
51
270
0
ARC
8
0
10
280.6962482
20
98.273
40
0.5
50
0
51
90
0
ARC
8
0
10
262.6962482
20
99.273
40
0.5
50
180
51
270
0
ARC
8
0
10
261.6962482
20
103.0355
40
0.5
50
0
51
90
0
ARC
8
0
10
241.6962482
20
103.0355
40
0.5
50
90
51
180
0
ARC
8
0
10
240.6962482
20
99.273
40
0.5
50
270
51
0
0
ARC
8
0
10
222.6962482
20
98.273
40
0.5
50
90
51
180
0
ARC
8
0
10
221.6962482
20
96.4155
40
0.5
50
270
51
0
0
ARC
8
0
10
203.6962482
20
95.4155
40
0.5
50
90
51
180
0
ARC
8
0
10
202.6962482
20
58.3155
40
0.5
50
270
51
0
0
ARC
8
0
10
181.6962482
20
57.3155
40
0.5
50
90
51
180
0
ARC
8
0
10
181.6962482
20
38.3155
40
0.5
50
180
51
270
0
ARC
8
0
10
202.6962482
20
37.3155
40
0.5
50
0
51
90
0
ARC
8
0
10
202.6962482
20
8.7664311
40
0.5
50
289.9999981
51
0
0
ARC
8
0
10
179.0378701
20
-4.8243482
40
0.5
50
120.0000001
51
210.0000001
0
ARC
8
0
10
188.5378701
20
-21.2788308
40
0.5
50
210.0000001
51
300.0000001
0
ARC
8
0
10
205.8731425
20
-12.4250071
40
0.5
50
109.9999981
51
120.0000001
0
ARC
8
0
10
223.613973
20
-5.9678729
40
0.5
50
100.0000008
51
109.9999981
0
ARC
8
0
10
242.2065498
20
-2.6895
40
0.5
50
90
51
100.0000008
0
ARC
8
0
10
278.6962482
20
-2.697
40
0.5
50
0
51
90
0
ARC
8
0
10
279.6962482
20
-9.5
40
0.5
50
180
51
270
0
LINE
8
0
10
301.6962482
20
-6.5
11
315.6962482
21
-6.5
0
LINE
8
0
10
315.6962482
20
-6.5
11
315.6962482
21
6.5
0
LINE
8
0
10
315.6962482
20
6.5
11
301.6962482
21
6.5
0
LINE
8
0
10
301.6962482
20
6.5
11
301.6962482
21
-6.5
0
LINE
8
0
10
301.6962482
20
12.55
11
315.6962482
21
12.55
0
LINE
8
0
10
315.6962482
20
12.55
11
315.6962482
21
25.55
0
LINE
8
0
10
315.6962482
20
25.55
11
301.6962482
21
25.55
0
LINE
8
0
10
301.6962482
20
25.55
11
301.6962482
21
12.55
0
LINE
8
0
10
301.6962482
20
31.6
11
315.6962482
21
31.6
0
LINE
8
0
10
315.6962482
20
31.6
11
315.6962482
21
44.6
0
LINE
8
0
10
315.6962482
20
44.6
11
301.6962482
21
44.6
0
LINE
8
0
10
301.6962482
20
44.6
11
301.6962482
21
31.6
0
LINE
8
0
10
301.6962482
20
50.65
11
315.6962482
21
50.65
0
LINE
8
0
10
315.6962482
20
50.65
11
315.6962482
21
63.65
0
LINE
8
0
10
315.6962482
20
63.65
11
301.6962482
21
63.65
0
LINE
8
0
10
301.6962482
20
63.65
11
301.6962482
21
50.65
0
LINE
8
0
10
301.6962482
20
69.7
11
315.6962482
21
69.7
0
LINE
8
0
10
315.6962482
20
69.7
11
315.6962482
21
82.7
0
LINE
8
0
10
315.6962482
20
82.7
11
301.6962482
21
82.7
0
LINE
8
0
10
301.6962482
20
82.7
11
301.6962482
21
69.7
0
LINE
8
0
10
282.6962482
20
-6.5
11
296.6962482
21
-6.5
0
LINE
8
0
10
296.6962482
20
-6.5
11
296.6962482
21
6.5
0
LINE
8
0
10
296.6962482
20
6.5
11
282.6962482
21
6.5
0
LINE
8
0
10
282.6962482
20
6.5
11
282.6962482
21
-6.5
0
LINE
8
0
10
282.6962482
20
12.55
11
296.6962482
21
12.55
0
LINE
8
0
10
296.6962482
20
12.55
11
296.6962482
21
25.55
0
LINE
8
0
10
296.6962482
20
25.55
11
282.6962482
21
25.55
0
LINE
8
0
10
282.6962482
20
25.55
11
282.6962482
21
12.55
0
LINE
8
0
10
282.6962482
20
31.6
11
296.6962482
21
31.6
0
LINE
8
0
10
296.6962482
20
31.6
11
296.6962482
21
44.6
0
LINE
8
0
10
296.6962482
20
44.6
11
282.6962482
21
44.6
0
LINE
8
0
10
282.6962482
20
44.6
11
282.6962482
21
31.6
0
LINE
8
0
10
282.6962482
20
50.65
11
296.6962482
21
50.65
0
LINE
8
0
10
296.6962482
20
50.65
11
296.6962482
21
63.65
0
LINE
8
0
10
296.6962482
20
63.65
11
282.6962482
21
63.65
0
LINE
8
0
10
282.6962482
20
63.65
11
282.6962482
21
50.65
0
LINE
8
0
10
282.6962482
20
69.7
11
296.6962482
21
69.7
0
LINE
8
0
10
296.6962482
20
69.7
11
296.6962482
21
82.7
0
LINE
8
0
10
296.6962482
20
82.7
11
282.6962482
21
82.7
0
LINE
8
0
10
282.6962482
20
82.7
11
282.6962482
21
69.7
0
LINE
8
0
10
263.6962482
20
25.123
11
277.6962482
21
25.123
0
LINE
8
0
10
277.6962482
20
25.123
11
277.6962482
21
38.123
0
LINE
8
0
10
277.6962482
20
38.123
11
263.6962482
21
38.123
0
LINE
8
0
10
263.6962482
20
38.123
11
263.6962482
21
25.123
0
LINE
8
0
10
263.6962482
20
44.173
11
277.6962482
21
44.173
0
LINE
8
0
10
277.6962482
20
44.173
11
277.6962482
21
57.173
0
LINE
8
0
10
277.6962482
20
57.173
11
263.6962482
21
57.173
0
LINE
8
0
10
263.6962482
20
57.173
11
263.6962482
21
44.173
0
LINE
8
0
10
263.6962482
20
63.223
11
277.6962482
21
63.223
0
LINE
8
0
10
277.6962482
20
63.223
11
277.6962482
21
76.223
0
LINE
8
0
10
277.6962482
20
76.223
11
263.6962482
21
76.223
0
LINE
8
0
10
263.6962482
20
76.223
11
263.6962482
21
63.223
0
LINE
8
0
10
263.6962482
20
82.273
11
277.6962482
21
82.273
0
LINE
8
0
10
277.6962482
20
82.273
11
277.6962482
21
95.273
0
LINE
8
0
10
277.6962482
20
95.273
11
263.6962482
21
95.273
0
LINE
8
0
10
263.6962482
20
95.273
11
263.6962482
21
82.273
0
LINE
8
0
10
244.6962482
20
29.8855
11
258.6962482
21
29.8855
0
LINE
8
0
10
258.6962482
20
29.8855
11
258.6962482
21
42.8855
0
LINE
8
0
10
258.6962482
20
42.8855
11
244.6962482
21
42.8855
0
LINE
8
0
10
244.6962482
20
42.8855
11
244.6962482
21
29.8855
0
LINE
8
0
10
244.6962482
20
48.9355
11
258.6962482
21
48.9355
0
LINE
8
0
10
258.6962482
20
48.9355
11
258.6962482
21
61.9355
0
LINE
8
0
10
258.6962482
20
61.9355
11
244.6962482
21
61.9355
0
LINE
8
0
10
244.6962482
20
61.9355
11
244.6962482
21
48.9355
0
LINE
8
0
10
244.6962482
20
67.9855
11
258.6962482
21
67.9855
0
LINE
8
0
10
258.6962482
20
67.9855
11
258.6962482
21
80.9855
0
LINE
8
0
10
258.6962482
20
80.9855
11
244.6962482
21
80.9855
0
LINE
8
0
10
244.6962482
20
80.9855
11
244.6962482
21
67.9855
0
LINE
8
0
10
244.6962482
20
87.0355
11
258.6962482
21
87.0355
0
LINE
8
0
10
258.6962482
20
87.0355
11
258.6962482
21
100.0355
0
LINE
8
0
10
258.6962482
20
100.0355
11
244.6962482
21
100.0355
0
LINE
8
0
10
244.6962482
20
100.0355
11
244.6962482
21
87.0355
0
LINE
8
0
10
225.6962482
20
25.123
11
239.6962482
21
25.123
0
LINE
8
0
10
239.6962482
20
25.123
11
239.6962482
21
38.123
0
LINE
8
0
10
239.6962482
20
38.123
11
225.6962482
21
38.123
0
LINE
8
0
10
225.6962482
20
38.123
11
225.6962482
21
25.123
0
LINE
8
0
10
225.6962482
20
44.173
11
239.6962482
21
44.173
0
LINE
8
0
10
239.6962482
20
44.173
11
239.6962482
21
57.173
0
LINE
8
0
10
239.6962482
20
57.173
11
225.6962482
21
57.173
0
LINE
8
0
10
225.6962482
20
57.173
11
225.6962482
21
44.173
0
LINE
8
0
10
225.6962482
20
63.223
11
239.6962482
21
63.223
0
LINE
8
0
10
239.6962482
20
63.223
11
239.6962482
21
76.223
0
LINE
8
0
10
239.6962482
20
76.223
11
225.6962482
21
76.223
0
LINE
8
0
10
225.6962482
20
76.223
11
225.6962482
21
63.223
0
LINE
8
0
10
225.6962482
20
82.273
11
239.6962482
21
82.273
0
LINE
8
0
10
239.6962482
20
82.273
11
239.6962482
21
95.273
0
LINE
8
0
10
239.6962482
20
95.273
11
225.6962482
21
95.273
0
LINE
8
0
10
225.6962482
20
95.273
11
225.6962482
21
82.273
0
LINE
8
0
10
206.6962482
20
22.2655
11
220.6962482
21
22.2655
0
LINE
8
0
10
220.6962482
20
22.2655
11
220.6962482
21
35.2655
0
LINE
8
0
10
220.6962482
20
35.2655
11
206.6962482
21
35.2655
0
LINE
8
0
10
206.6962482
20
35.2655
11
206.6962482
21
22.2655
0
LINE
8
0
10
206.6962482
20
41.3155
11
220.6962482
21
41.3155
0
LINE
8
0
10
220.6962482
20
41.3155
11
220.6962482
21
54.3155
0
LINE
8
0
10
220.6962482
20
54.3155
11
206.6962482
21
54.3155
0
LINE
8
0
10
206.6962482
20
54.3155
11
206.6962482
21
41.3155
0
LINE
8
0
10
206.6962482
20
60.3655
11
220.6962482
21
60.3655
0
LINE
8
0
10
220.6962482
20
60.3655
11
220.6962482
21
73.3655
0
LINE
8
0
10
220.6962482
20
73.3655
11
206.6962482
21
73.3655
0
LINE
8
0
10
206.6962482
20
73.3655
11
206.6962482
21
60.3655
0
LINE
8
0
10
206.6962482
20
79.4155
11
220.6962482
21
79.4155
0
LINE
8
0
10
220.6962482
20
79.4155
11
220.6962482
21
92.4155
0
LINE
8
0
10
220.6962482
20
92.4155
11
206.6962482
21
92.4155
0
LINE
8
0
10
206.6962482
20
92.4155
11
206.6962482
21
79.4155
0
LINE
8
0
10
244.6462482
20
1.3105
11
258.6462482
21
1.3105
0
LINE
8
0
10
258.6462482
20
1.3105
11
258.6462482
21
14.3105
0
LINE
8
0
10
258.6462482
20
14.3105
11
244.6462482
21
14.3105
0
LINE
8
0
10
244.6462482
20
14.3105
11
244.6462482
21
1.3105
0
LINE
8
0
10
225.3220144
20
-1.6049926
11
239.1093229
21
0.8260818
0
LINE
8
0
10
239.1093229
20
0.8260818
11
236.8518966
21
13.6285826
0
LINE
8
0
10
236.8518966
20
13.6285826
11
223.0645881
21
11.1975082
0
LINE
8
0
10
223.0645881
20
11.1975082
11
225.3220144
21
-1.6049926
0
LINE
8
0
10
206.7976291
20
-7.8318104
11
219.9533258
21
-3.0435284
0
LINE
8
0
10
219.9533258
20
-3.0435284
11
215.5070639
21
9.1724756
0
LINE
8
0
10
215.5070639
20
9.1724756
11
202.3513672
21
4.3841936
0
LINE
8
0
10
202.3513672
20
4.3841936
11
206.7976291
21
-7.8318104
0
LINE
8
0
10
189.6359463
20
-17.1807546
11
201.7603019
21
-10.1807546
0
LINE
8
0
10
201.7603019
20
-10.1807546
11
195.2603019
21
1.0775756
0
LINE
8
0
10
195.2603019
20
1.0775756
11
183.1359463
21
-5.9224244
0
LINE
8
0
10
183.1359463
20
-5.9224244
11
189.6359463
21
-17.1807546
0
LINE
8
0
10
184.6962482
20
41.3155
11
198.6962482
21
41.3155
0
LINE
8
0
10
198.6962482
20
41.3155
11
198.6962482
21
54.3155
0
LINE
8
0
10
198.6962482
20
54.3155
11
184.6962482
21
54.3155
0
LINE
8
0
10
184.6962482
20
54.3155
11
184.6962482
21
41.3155
0
CIRCLE
8
0
10
299.2212482
20
9.525
40
1.1
0
CIRCLE
8
0
10
299.2212482
20
66.675
40
1.1
0
CIRCLE
8
0
10
261.2212482
20
45.9105
40
1.1
0
CIRCLE
8
0
10
261.2212482
20
84.0105
40
1.1
0
CIRCLE
8
0
10
223.2212482
20
38.2905
40
1.1
0
CIRCLE
8
0
10
223.2212482
20
76.3905
40
1.1
0
ENDSEC
0
EOF